<?xml version="1.0" encoding="utf-8"?>
<!-- Generator: Adobe Illustrator 23.0.2, SVG Export Plug-In . SVG Version: 6.00 Build 0)  -->
<svg version="1.1" id="Layer_1" xmlns="http://www.w3.org/2000/svg" xmlns:xlink="http://www.w3.org/1999/xlink" x="0px" y="0px"
	 viewBox="0 0 400 315" style="enable-background:new 0 0 400 315;" xml:space="preserve">
<style type="text/css">
	.st0{fill:#4AAAA5;}
</style>
<image style="overflow:visible;" width="1551" height="1164" xlink:href="PlanetInvaders.jpg"  transform="matrix(0.2579 0 0 0.2722 -0.5 -0.396)">
</image>
<rect y="247.3" class="st0" width="400" height="42.9"/>
<g>
	<path d="M141,268v3.5c0,0.7,0,1.1,0.1,1.3c0.1,0.2,0.2,0.3,0.4,0.4c0.2,0.1,0.6,0.2,1.2,0.2v0.3h-6.4v-0.3c0.6,0,1-0.1,1.2-0.2
		c0.2-0.1,0.4-0.2,0.4-0.4c0.1-0.2,0.1-0.6,0.1-1.3v-8.2c0-0.7,0-1.1-0.1-1.3c-0.1-0.2-0.2-0.3-0.4-0.4c-0.2-0.1-0.6-0.2-1.2-0.2
		v-0.3h5.5c1.8,0,3.1,0.3,3.9,1s1.2,1.4,1.2,2.4c0,0.8-0.3,1.5-0.8,2.1c-0.5,0.6-1.2,1-2.1,1.2C143.4,267.9,142.4,268,141,268z
		 M141,261.8v5.4c0.2,0,0.4,0,0.5,0c0.8,0,1.3-0.2,1.7-0.7c0.4-0.4,0.6-1.1,0.6-2.1c0-0.9-0.2-1.6-0.6-2.1s-1-0.6-1.8-0.6H141z"/>
	<path d="M151.5,261.1v10.8c0,0.6,0.1,1,0.2,1.2s0.4,0.3,0.8,0.3v0.3h-4.7v-0.3c0.4,0,0.7-0.1,0.9-0.3c0.1-0.1,0.2-0.5,0.2-1.1v-9
		c0-0.6-0.1-1-0.2-1.2c-0.1-0.2-0.4-0.3-0.8-0.3v-0.3H151.5z"/>
	<path d="M158.2,272.4c-1.1,0.9-2,1.4-2.8,1.4c-0.5,0-0.9-0.2-1.2-0.5c-0.3-0.3-0.5-0.7-0.5-1.2c0-0.7,0.3-1.3,0.9-1.8
		c0.6-0.5,1.8-1.2,3.7-2.1v-0.9c0-0.7,0-1.1-0.1-1.2c-0.1-0.2-0.2-0.3-0.4-0.4c-0.2-0.1-0.4-0.2-0.7-0.2c-0.4,0-0.7,0.1-1,0.3
		c-0.2,0.1-0.2,0.2-0.2,0.4c0,0.1,0.1,0.3,0.3,0.5c0.2,0.3,0.4,0.5,0.4,0.8c0,0.3-0.1,0.6-0.3,0.8c-0.2,0.2-0.5,0.3-0.9,0.3
		c-0.4,0-0.7-0.1-1-0.4c-0.3-0.2-0.4-0.5-0.4-0.8c0-0.4,0.2-0.9,0.5-1.3s0.8-0.7,1.5-0.9s1.3-0.3,2-0.3c0.8,0,1.5,0.2,2,0.5
		c0.5,0.3,0.8,0.7,0.9,1.1c0.1,0.3,0.1,0.9,0.1,1.8v3.4c0,0.4,0,0.6,0,0.7c0,0.1,0.1,0.2,0.1,0.2c0.1,0,0.1,0.1,0.2,0.1
		c0.2,0,0.3-0.1,0.5-0.3l0.3,0.2c-0.3,0.5-0.6,0.8-1,1c-0.3,0.2-0.7,0.3-1.1,0.3c-0.5,0-0.9-0.1-1.2-0.3
		C158.4,273.2,158.2,272.9,158.2,272.4z M158.2,271.7v-2.9c-0.7,0.4-1.3,0.9-1.7,1.4c-0.2,0.3-0.4,0.7-0.4,1c0,0.3,0.1,0.5,0.3,0.8
		c0.2,0.2,0.4,0.3,0.7,0.3C157.4,272.3,157.8,272.1,158.2,271.7z"/>
	<path d="M166.4,265v1.1c0.4-0.5,0.9-0.8,1.3-1.1s0.8-0.3,1.3-0.3c0.6,0,1,0.2,1.4,0.5c0.4,0.3,0.6,0.7,0.7,1.2c0.1,0.4,0.1,1,0.1,2
		v3.4c0,0.7,0.1,1.1,0.2,1.2c0.1,0.2,0.4,0.3,0.8,0.3v0.3h-4.4v-0.3c0.3,0,0.6-0.2,0.7-0.4c0.1-0.2,0.1-0.5,0.1-1.2v-3.9
		c0-0.7,0-1.2-0.1-1.3c-0.1-0.2-0.2-0.3-0.3-0.4c-0.1-0.1-0.3-0.2-0.4-0.2c-0.5,0-1,0.4-1.5,1.1v4.6c0,0.6,0.1,1.1,0.2,1.2
		c0.1,0.2,0.3,0.3,0.7,0.3v0.3h-4.4v-0.3c0.4,0,0.6-0.2,0.8-0.4c0.1-0.1,0.2-0.5,0.2-1.2v-4.9c0-0.7-0.1-1.1-0.2-1.2
		c-0.1-0.2-0.4-0.3-0.8-0.3V265H166.4z"/>
	<path d="M180.8,269h-4.8c0.1,1.2,0.4,2.1,0.9,2.7c0.4,0.5,0.9,0.8,1.5,0.8c0.4,0,0.7-0.1,1-0.3s0.6-0.6,1-1.1l0.3,0.2
		c-0.5,1-1,1.6-1.6,2c-0.6,0.4-1.2,0.6-2,0.6c-1.3,0-2.3-0.5-2.9-1.5c-0.5-0.8-0.8-1.8-0.8-3c0-1.4,0.4-2.6,1.2-3.5
		c0.8-0.9,1.7-1.3,2.8-1.3c0.9,0,1.6,0.4,2.3,1.1C180.4,266.6,180.8,267.6,180.8,269z M178.5,268.4c0-1-0.1-1.7-0.2-2.1
		s-0.3-0.7-0.5-0.8c-0.1-0.1-0.3-0.2-0.5-0.2c-0.3,0-0.6,0.2-0.8,0.5c-0.4,0.5-0.5,1.3-0.5,2.3v0.3H178.5z"/>
	<path d="M185.3,261.8v3.2h2.1v0.9h-2.1v5.4c0,0.5,0,0.8,0.1,1c0,0.1,0.1,0.3,0.2,0.4c0.1,0.1,0.2,0.1,0.3,0.1
		c0.4,0,0.8-0.3,1.1-0.9l0.3,0.2c-0.5,1.2-1.3,1.8-2.4,1.8c-0.5,0-1-0.2-1.4-0.5c-0.4-0.3-0.6-0.6-0.7-1c-0.1-0.2-0.1-0.8-0.1-1.7
		v-4.7h-1.1v-0.3c0.8-0.6,1.4-1.1,2-1.7c0.5-0.6,1-1.3,1.4-2H185.3z"/>
	<path d="M199.3,273.3v0.3h-6.6v-0.3h0.4c0.4,0,0.7-0.1,0.9-0.2c0.2-0.1,0.3-0.2,0.4-0.4c0.1-0.1,0.1-0.5,0.1-1.2v-8.3
		c0-0.6,0-1-0.1-1.2c-0.1-0.2-0.2-0.3-0.4-0.4c-0.2-0.1-0.5-0.2-0.8-0.2h-0.4v-0.3h6.6v0.3h-0.4c-0.4,0-0.7,0.1-0.9,0.2
		c-0.2,0.1-0.3,0.2-0.4,0.4c-0.1,0.1-0.1,0.5-0.1,1.2v8.3c0,0.6,0,1,0.1,1.2s0.2,0.3,0.4,0.4c0.2,0.1,0.5,0.2,0.8,0.2H199.3z"/>
	<path d="M203.9,265v1.1c0.4-0.5,0.9-0.8,1.3-1.1s0.8-0.3,1.3-0.3c0.6,0,1,0.2,1.4,0.5c0.4,0.3,0.6,0.7,0.7,1.2c0.1,0.4,0.1,1,0.1,2
		v3.4c0,0.7,0.1,1.1,0.2,1.2c0.1,0.2,0.4,0.3,0.8,0.3v0.3h-4.4v-0.3c0.3,0,0.6-0.2,0.7-0.4c0.1-0.2,0.1-0.5,0.1-1.2v-3.9
		c0-0.7,0-1.2-0.1-1.3c-0.1-0.2-0.2-0.3-0.3-0.4c-0.1-0.1-0.3-0.2-0.4-0.2c-0.5,0-1,0.4-1.5,1.1v4.6c0,0.6,0.1,1.1,0.2,1.2
		c0.1,0.2,0.3,0.3,0.7,0.3v0.3h-4.4v-0.3c0.4,0,0.6-0.2,0.8-0.4c0.1-0.1,0.2-0.5,0.2-1.2v-4.9c0-0.7-0.1-1.1-0.2-1.2
		c-0.1-0.2-0.4-0.3-0.8-0.3V265H203.9z"/>
	<path d="M214.9,274l-2.9-6.7c-0.4-0.8-0.6-1.3-0.8-1.5c-0.1-0.2-0.4-0.3-0.6-0.3V265h4.6v0.3c-0.3,0-0.5,0.1-0.6,0.2
		c-0.1,0.1-0.2,0.3-0.2,0.5c0,0.2,0.1,0.7,0.4,1.3l1.4,3.3l1.1-2.8c0.3-0.8,0.5-1.4,0.5-1.7c0-0.2-0.1-0.3-0.2-0.5
		c-0.1-0.1-0.4-0.2-0.7-0.2V265h2.8v0.3c-0.3,0-0.5,0.1-0.7,0.3c-0.2,0.2-0.4,0.7-0.8,1.5l-2.9,6.8H214.9z"/>
	<path d="M225.2,272.4c-1.1,0.9-2,1.4-2.8,1.4c-0.5,0-0.9-0.2-1.2-0.5c-0.3-0.3-0.5-0.7-0.5-1.2c0-0.7,0.3-1.3,0.9-1.8
		c0.6-0.5,1.8-1.2,3.7-2.1v-0.9c0-0.7,0-1.1-0.1-1.2c-0.1-0.2-0.2-0.3-0.4-0.4c-0.2-0.1-0.4-0.2-0.7-0.2c-0.4,0-0.7,0.1-1,0.3
		c-0.2,0.1-0.2,0.2-0.2,0.4c0,0.1,0.1,0.3,0.3,0.5c0.2,0.3,0.4,0.5,0.4,0.8c0,0.3-0.1,0.6-0.3,0.8c-0.2,0.2-0.5,0.3-0.9,0.3
		c-0.4,0-0.7-0.1-1-0.4c-0.3-0.2-0.4-0.5-0.4-0.8c0-0.4,0.2-0.9,0.5-1.3s0.8-0.7,1.5-0.9s1.3-0.3,2-0.3c0.8,0,1.5,0.2,2,0.5
		c0.5,0.3,0.8,0.7,0.9,1.1c0.1,0.3,0.1,0.9,0.1,1.8v3.4c0,0.4,0,0.6,0,0.7c0,0.1,0.1,0.2,0.1,0.2c0.1,0,0.1,0.1,0.2,0.1
		c0.2,0,0.3-0.1,0.5-0.3l0.3,0.2c-0.3,0.5-0.6,0.8-1,1c-0.3,0.2-0.7,0.3-1.1,0.3c-0.5,0-0.9-0.1-1.2-0.3
		C225.5,273.2,225.3,272.9,225.2,272.4z M225.2,271.7v-2.9c-0.7,0.4-1.3,0.9-1.7,1.4c-0.2,0.3-0.4,0.7-0.4,1c0,0.3,0.1,0.5,0.3,0.8
		c0.2,0.2,0.4,0.3,0.7,0.3C224.5,272.3,224.8,272.1,225.2,271.7z"/>
	<path d="M238.4,261.1v10c0,0.7,0,1.1,0.1,1.2c0,0.2,0.1,0.4,0.3,0.5c0.1,0.1,0.4,0.2,0.7,0.2v0.3l-3.7,0.7v-1.4
		c-0.4,0.5-0.8,0.9-1.2,1.1c-0.3,0.2-0.7,0.3-1.2,0.3c-1.1,0-2-0.5-2.6-1.5c-0.5-0.8-0.8-1.8-0.8-3c0-0.9,0.2-1.8,0.5-2.5
		c0.3-0.7,0.8-1.3,1.3-1.7s1.2-0.6,1.8-0.6c0.4,0,0.8,0.1,1.1,0.2c0.3,0.2,0.7,0.4,1,0.8v-2.6c0-0.7,0-1.1-0.1-1.2
		c-0.1-0.2-0.2-0.3-0.3-0.4s-0.4-0.1-0.8-0.1v-0.4H238.4z M235.8,267c-0.5-0.9-1-1.3-1.7-1.3c-0.2,0-0.4,0.1-0.6,0.2
		c-0.2,0.2-0.4,0.5-0.6,1s-0.2,1.2-0.2,2.2c0,1.1,0.1,1.9,0.2,2.4s0.4,0.9,0.7,1.1c0.1,0.1,0.3,0.2,0.6,0.2c0.5,0,1.1-0.4,1.5-1.3
		V267z"/>
	<path d="M247.9,269h-4.8c0.1,1.2,0.4,2.1,0.9,2.7c0.4,0.5,0.9,0.8,1.5,0.8c0.4,0,0.7-0.1,1-0.3s0.6-0.6,1-1.1l0.3,0.2
		c-0.5,1-1,1.6-1.6,2c-0.6,0.4-1.2,0.6-2,0.6c-1.3,0-2.3-0.5-2.9-1.5c-0.5-0.8-0.8-1.8-0.8-3c0-1.4,0.4-2.6,1.2-3.5
		c0.8-0.9,1.7-1.3,2.8-1.3c0.9,0,1.6,0.4,2.3,1.1C247.5,266.6,247.8,267.6,247.9,269z M245.6,268.4c0-1-0.1-1.7-0.2-2.1
		s-0.3-0.7-0.5-0.8c-0.1-0.1-0.3-0.2-0.5-0.2c-0.3,0-0.6,0.2-0.8,0.5c-0.4,0.5-0.5,1.3-0.5,2.3v0.3H245.6z"/>
	<path d="M252.5,265v2c0.6-0.9,1.1-1.5,1.5-1.8s0.9-0.4,1.3-0.4c0.3,0,0.6,0.1,0.8,0.3c0.2,0.2,0.3,0.5,0.3,0.9c0,0.4-0.1,0.7-0.3,1
		c-0.2,0.2-0.4,0.3-0.7,0.3c-0.3,0-0.6-0.1-0.9-0.3c-0.2-0.2-0.4-0.3-0.4-0.4c-0.1,0-0.1-0.1-0.2-0.1c-0.2,0-0.3,0.1-0.5,0.2
		c-0.3,0.2-0.4,0.5-0.6,0.9c-0.2,0.6-0.3,1.3-0.3,2v2l0,0.5c0,0.4,0,0.6,0.1,0.7c0.1,0.2,0.2,0.3,0.3,0.4c0.1,0.1,0.4,0.1,0.7,0.1
		v0.3H249v-0.3c0.4,0,0.6-0.1,0.8-0.3c0.1-0.2,0.2-0.6,0.2-1.4v-4.8c0-0.5,0-0.8-0.1-0.9c-0.1-0.2-0.2-0.3-0.3-0.4s-0.3-0.1-0.6-0.2
		V265H252.5z"/>
	<path d="M262.9,264.8l0.1,3h-0.3c-0.4-0.9-0.8-1.5-1.2-1.8c-0.4-0.3-0.8-0.5-1.2-0.5c-0.3,0-0.5,0.1-0.6,0.3
		c-0.2,0.2-0.3,0.4-0.3,0.6c0,0.2,0.1,0.3,0.2,0.5c0.2,0.3,0.8,0.7,1.7,1.3c0.9,0.6,1.5,1.1,1.8,1.6c0.3,0.4,0.4,0.9,0.4,1.4
		c0,0.5-0.1,1-0.4,1.4c-0.2,0.5-0.6,0.8-1,1.1c-0.4,0.2-0.9,0.4-1.5,0.4c-0.4,0-1-0.1-1.7-0.4c-0.2-0.1-0.3-0.1-0.4-0.1
		c-0.2,0-0.4,0.2-0.5,0.5h-0.3l-0.1-3.1h0.3c0.3,0.8,0.7,1.4,1.1,1.8s0.9,0.6,1.4,0.6c0.3,0,0.5-0.1,0.7-0.3
		c0.2-0.2,0.3-0.4,0.3-0.7c0-0.3-0.1-0.6-0.3-0.8c-0.2-0.2-0.6-0.5-1.2-1c-0.9-0.7-1.6-1.2-1.8-1.5c-0.4-0.5-0.6-1.1-0.6-1.7
		c0-0.7,0.2-1.3,0.7-1.8s1.1-0.8,2-0.8c0.5,0,0.9,0.1,1.4,0.3c0.2,0.1,0.3,0.1,0.4,0.1c0.1,0,0.2,0,0.3-0.1c0.1,0,0.2-0.2,0.3-0.4
		H262.9z"/>
</g>
</svg>
